<mxfile host="app.diagrams.net" modified="2023-10-17T12:33:08.020Z" agent="Mozilla/5.0 (Macintosh; Intel Mac OS X 10_15_7) AppleWebKit/537.36 (KHTML, like Gecko) Chrome/118.0.0.0 Safari/537.36" etag="gSnkFC1FhKlLH_Gq9XLb" version="22.0.4" type="device">
  <diagram name="Sayfa -1" id="dKmzcLjc1EtNiqDy3faP">
    <mxGraphModel dx="636" dy="428" grid="1" gridSize="10" guides="1" tooltips="1" connect="1" arrows="1" fold="1" page="1" pageScale="1" pageWidth="827" pageHeight="1169" math="0" shadow="0">
      <root>
        <mxCell id="0" />
        <mxCell id="1" parent="0" />
        <mxCell id="alwCmvfIhtdQpr574iRR-1" value="STUDENT" style="swimlane;fontStyle=0;childLayout=stackLayout;horizontal=1;startSize=26;horizontalStack=0;resizeParent=1;resizeParentMax=0;resizeLast=0;collapsible=1;marginBottom=0;align=center;fontSize=14;" vertex="1" parent="1">
          <mxGeometry x="40" y="80" width="430" height="236" as="geometry">
            <mxRectangle x="40" y="80" width="110" height="30" as="alternateBounds" />
          </mxGeometry>
        </mxCell>
        <mxCell id="alwCmvfIhtdQpr574iRR-2" value="&lt;u&gt;studentID&lt;/u&gt;" style="text;strokeColor=none;fillColor=none;spacingLeft=4;spacingRight=4;overflow=hidden;rotatable=0;points=[[0,0.5],[1,0.5]];portConstraint=eastwest;fontSize=12;whiteSpace=wrap;html=1;" vertex="1" parent="alwCmvfIhtdQpr574iRR-1">
          <mxGeometry y="26" width="430" height="30" as="geometry" />
        </mxCell>
        <mxCell id="alwCmvfIhtdQpr574iRR-3" value="fullname (FirstName, LastName)" style="text;strokeColor=none;fillColor=none;spacingLeft=4;spacingRight=4;overflow=hidden;rotatable=0;points=[[0,0.5],[1,0.5]];portConstraint=eastwest;fontSize=12;whiteSpace=wrap;html=1;" vertex="1" parent="alwCmvfIhtdQpr574iRR-1">
          <mxGeometry y="56" width="430" height="30" as="geometry" />
        </mxCell>
        <mxCell id="alwCmvfIhtdQpr574iRR-4" value="dateOfBirth" style="text;strokeColor=none;fillColor=none;spacingLeft=4;spacingRight=4;overflow=hidden;rotatable=0;points=[[0,0.5],[1,0.5]];portConstraint=eastwest;fontSize=12;whiteSpace=wrap;html=1;" vertex="1" parent="alwCmvfIhtdQpr574iRR-1">
          <mxGeometry y="86" width="430" height="30" as="geometry" />
        </mxCell>
        <mxCell id="alwCmvfIhtdQpr574iRR-6" value="{email} // can have multiple values" style="text;strokeColor=none;fillColor=none;spacingLeft=4;spacingRight=4;overflow=hidden;rotatable=0;points=[[0,0.5],[1,0.5]];portConstraint=eastwest;fontSize=12;whiteSpace=wrap;html=1;" vertex="1" parent="alwCmvfIhtdQpr574iRR-1">
          <mxGeometry y="116" width="430" height="30" as="geometry" />
        </mxCell>
        <mxCell id="alwCmvfIhtdQpr574iRR-7" value="GPA" style="text;strokeColor=none;fillColor=none;spacingLeft=4;spacingRight=4;overflow=hidden;rotatable=0;points=[[0,0.5],[1,0.5]];portConstraint=eastwest;fontSize=12;whiteSpace=wrap;html=1;" vertex="1" parent="alwCmvfIhtdQpr574iRR-1">
          <mxGeometry y="146" width="430" height="30" as="geometry" />
        </mxCell>
        <mxCell id="alwCmvfIhtdQpr574iRR-8" value="[age] // can be calculated with other field, dateOfBirth etc." style="text;strokeColor=none;fillColor=none;spacingLeft=4;spacingRight=4;overflow=hidden;rotatable=0;points=[[0,0.5],[1,0.5]];portConstraint=eastwest;fontSize=12;whiteSpace=wrap;html=1;" vertex="1" parent="alwCmvfIhtdQpr574iRR-1">
          <mxGeometry y="176" width="430" height="30" as="geometry" />
        </mxCell>
        <mxCell id="alwCmvfIhtdQpr574iRR-9" value="Item 3" style="text;strokeColor=none;fillColor=none;spacingLeft=4;spacingRight=4;overflow=hidden;rotatable=0;points=[[0,0.5],[1,0.5]];portConstraint=eastwest;fontSize=12;whiteSpace=wrap;html=1;" vertex="1" parent="alwCmvfIhtdQpr574iRR-1">
          <mxGeometry y="206" width="430" height="30" as="geometry" />
        </mxCell>
      </root>
    </mxGraphModel>
  </diagram>
</mxfile>
